<svg xmlns="http://www.w3.org/2000/svg" xmlns:xlink="http://www.w3.org/1999/xlink" version="1.1" x="0px" y="0px" viewBox="0 0 512 640" enable-background="new 0 0 512 512" xml:space="preserve"><g><g><path d="M260.243,392c-2.211,0-4.039-1.789-4.039-4s1.75-4,3.953-4h0.086c2.203,0,4,1.789,4,4S262.446,392,260.243,392z"/></g><g><path d="M132.001,16c-2.211,0-4-1.789-4-4V4c0-2.211,1.789-4,4-4s4,1.789,4,4v8C136.001,14.211,134.212,16,132.001,16z"/></g><g><path d="M148.001,8h-16c-2.211,0-4-1.789-4-4s1.789-4,4-4h16c2.211,0,4,1.789,4,4S150.212,8,148.001,8z"/></g><g><path d="M148.001,16c-2.211,0-4-1.789-4-4V4c0-2.211,1.789-4,4-4s4,1.789,4,4v8C152.001,14.211,150.212,16,148.001,16z"/></g><g><path d="M348.001,240h-184c-2.211,0-4-1.789-4-4s1.789-4,4-4h184c2.211,0,4,1.789,4,4S350.212,240,348.001,240z"/></g><g><path d="M396.001,264h-280c-2.211,0-4-1.789-4-4s1.789-4,4-4h280c2.211,0,4,1.789,4,4S398.212,264,396.001,264z"/></g><g><path d="M369.329,280H142.7c-2.211,0-4-1.789-4-4s1.789-4,4-4h226.629c2.211,0,4,1.789,4,4S371.54,280,369.329,280z"/></g><g><path d="M380.001,24h-248c-2.211,0-4-1.789-4-4s1.789-4,4-4h248c2.211,0,4,1.789,4,4S382.212,24,380.001,24z"/></g><g><path d="M380.001,104h-248c-2.211,0-4-1.789-4-4s1.789-4,4-4h248c2.211,0,4,1.789,4,4S382.212,104,380.001,104z"/></g><g><path d="M148.001,128c-2.211,0-4-1.789-4-4v-16c0-2.211,1.789-4,4-4s4,1.789,4,4v16C152.001,126.211,150.212,128,148.001,128z"/></g><g><path d="M132.001,128c-2.211,0-4-1.789-4-4v-16c0-2.211,1.789-4,4-4s4,1.789,4,4v16C136.001,126.211,134.212,128,132.001,128z"/></g><g><path d="M132.001,104c-2.211,0-4-1.789-4-4V20c0-2.211,1.789-4,4-4s4,1.789,4,4v80C136.001,102.211,134.212,104,132.001,104z"/></g><g><path d="M148.001,88c-2.211,0-4-1.789-4-4V36c0-2.211,1.789-4,4-4s4,1.789,4,4v48C152.001,86.211,150.212,88,148.001,88z"/></g><g><path d="M380.001,16c-2.211,0-4-1.789-4-4V4c0-2.211,1.789-4,4-4s4,1.789,4,4v8C384.001,14.211,382.212,16,380.001,16z"/></g><g><path d="M380.001,8h-16c-2.211,0-4-1.789-4-4s1.789-4,4-4h16c2.211,0,4,1.789,4,4S382.212,8,380.001,8z"/></g><g><path d="M364.001,16c-2.211,0-4-1.789-4-4V4c0-2.211,1.789-4,4-4s4,1.789,4,4v8C368.001,14.211,366.212,16,364.001,16z"/></g><g><path d="M364.001,128c-2.211,0-4-1.789-4-4v-16c0-2.211,1.789-4,4-4s4,1.789,4,4v16C368.001,126.211,366.212,128,364.001,128z"/></g><g><path d="M380.001,128c-2.211,0-4-1.789-4-4v-16c0-2.211,1.789-4,4-4s4,1.789,4,4v16C384.001,126.211,382.212,128,380.001,128z"/></g><g><path d="M380.001,104c-2.211,0-4-1.789-4-4V20c0-2.211,1.789-4,4-4s4,1.789,4,4v80C384.001,102.211,382.212,104,380.001,104z"/></g><g><path d="M364.001,88c-2.211,0-4-1.789-4-4V36c0-2.211,1.789-4,4-4s4,1.789,4,4v48C368.001,86.211,366.212,88,364.001,88z"/></g><g><g><path d="M396.04,512c-0.836,0-1.68-0.266-2.398-0.797l-126.68-95c-1.766-1.328-2.125-3.836-0.805-5.602     c1.336-1.773,3.844-2.117,5.602-0.805l126.68,95c1.766,1.328,2.125,3.836,0.805,5.602C398.454,511.453,397.251,512,396.04,512z"/></g><g><path d="M226.606,384.93c-0.836,0-1.676-0.258-2.395-0.805L73.634,271.203c-1.77-1.328-2.129-3.836-0.801-5.602     c1.328-1.77,3.84-2.121,5.598-0.805l150.578,112.938c1.77,1.32,2.129,3.828,0.801,5.594     C229.024,384.375,227.825,384.93,226.606,384.93z"/></g><g><path d="M417.649,504.008c-0.836,0-1.68-0.258-2.398-0.805L283.04,404.141c-1.766-1.32-2.125-3.828-0.805-5.594     c1.336-1.766,3.844-2.125,5.602-0.797l132.211,99.062c1.766,1.32,2.125,3.828,0.805,5.594     C420.063,503.453,418.86,504.008,417.649,504.008z"/></g><g><path d="M242.692,372.906c-0.832,0-1.676-0.266-2.395-0.797L105.626,271.203c-1.77-1.328-2.129-3.828-0.801-5.602     c1.324-1.762,3.828-2.129,5.598-0.805l134.672,100.906c1.77,1.328,2.129,3.828,0.801,5.602     C245.11,372.352,243.911,372.906,242.692,372.906z"/></g><g><path d="M409.634,512c-2.211,0-4-1.789-4-4s1.789-4,4-4c2.203,0,4-1.797,4-4c0-2.211,1.789-4,4-4s4,1.789,4,4     C421.634,506.617,416.251,512,409.634,512z"/></g><g><path d="M409.634,512H396.04c-2.211,0-4-1.789-4-4s1.789-4,4-4h13.594c2.211,0,4,1.789,4,4S411.845,512,409.634,512z"/></g></g><g><g><path d="M115.997,512c-1.219,0-2.418-0.547-3.203-1.602c-1.328-1.766-0.969-4.273,0.801-5.602l320.008-240     c1.758-1.316,4.266-0.973,5.602,0.805c1.32,1.766,0.961,4.273-0.805,5.602l-320.008,240C117.673,511.734,116.833,512,115.997,512     z"/></g><g><path d="M94.388,504.008c-1.219,0-2.418-0.555-3.203-1.602c-1.328-1.766-0.969-4.273,0.801-5.594L401.61,264.797     c1.758-1.316,4.266-0.973,5.602,0.805c1.32,1.773,0.961,4.273-0.805,5.602l-309.625,232     C96.063,503.75,95.22,504.008,94.388,504.008z"/></g><g><path d="M102.399,512c-6.617,0-12-5.383-12-12c0-2.211,1.789-4,4-4s4,1.789,4,4c0,2.203,1.793,4,4,4c2.211,0,4,1.789,4,4     S104.61,512,102.399,512z"/></g><g><path d="M115.993,512h-13.594c-2.211,0-4-1.789-4-4s1.789-4,4-4h13.594c2.211,0,4,1.789,4,4S118.204,512,115.993,512z"/></g></g><g><path d="M300.001,328h-88c-2.211,0-4-1.789-4-4s1.789-4,4-4h88c2.211,0,4,1.789,4,4S302.212,328,300.001,328z"/></g><g><path d="M284.001,344h-56c-2.211,0-4-1.789-4-4s1.789-4,4-4h56c2.211,0,4,1.789,4,4S286.212,344,284.001,344z"/></g><g><path d="M300.001,456h-88c-2.211,0-4-1.789-4-4s1.789-4,4-4h88c2.211,0,4,1.789,4,4S302.212,456,300.001,456z"/></g><g><path d="M316.001,472h-120c-2.211,0-4-1.789-4-4s1.789-4,4-4h120c2.211,0,4,1.789,4,4S318.212,472,316.001,472z"/></g><g><g><path d="M436.001,160h-32c-2.211,0-4-1.789-4-4s1.789-4,4-4h32c2.211,0,4,1.789,4,4S438.212,160,436.001,160z"/></g><g><path d="M404.001,176c-2.211,0-4-1.789-4-4v-16c0-2.211,1.789-4,4-4s4,1.789,4,4v16C408.001,174.211,406.212,176,404.001,176z"/></g><g><path d="M436.001,176h-32c-2.211,0-4-1.789-4-4s1.789-4,4-4h32c2.211,0,4,1.789,4,4S438.212,176,436.001,176z"/></g><g><path d="M436.001,176c-2.211,0-4-1.789-4-4v-16c0-2.211,1.789-4,4-4s4,1.789,4,4v16C440.001,174.211,438.212,176,436.001,176z"/></g><g><path d="M404.001,160c-0.602,0-1.211-0.137-1.789-0.422l-48-24c-1.977-0.988-2.773-3.391-1.789-5.367     c0.992-1.973,3.391-2.766,5.367-1.789l48,24c1.977,0.988,2.773,3.391,1.789,5.367C406.876,159.191,405.462,160,404.001,160z"/></g><g><path d="M436.001,160c-0.602,0-1.211-0.137-1.789-0.422l-48-24c-1.977-0.988-2.773-3.391-1.789-5.367     c0.992-1.973,3.398-2.766,5.367-1.789l48,24c1.977,0.988,2.773,3.391,1.789,5.367C438.876,159.191,437.462,160,436.001,160z"/></g><g><path d="M404.001,176c-0.594,0-1.195-0.129-1.758-0.406l-48-23.5c-1.984-0.973-2.805-3.367-1.836-5.352     c0.984-1.98,3.398-2.801,5.352-1.836l48,23.5c1.984,0.973,2.805,3.367,1.836,5.352C406.899,175.176,405.478,176,404.001,176z"/></g><g><path d="M388.001,136h-32c-2.211,0-4-1.789-4-4s1.789-4,4-4h32c2.211,0,4,1.789,4,4S390.212,136,388.001,136z"/></g><g><path d="M356.001,152.5c-2.211,0-4-1.789-4-4V132c0-2.211,1.789-4,4-4s4,1.789,4,4v16.5     C360.001,150.711,358.212,152.5,356.001,152.5z"/></g><g><path d="M436.001,248h-32c-2.211,0-4-1.789-4-4s1.789-4,4-4h32c2.211,0,4,1.789,4,4S438.212,248,436.001,248z"/></g><g><path d="M404.001,248c-0.602,0-1.211-0.137-1.789-0.422l-48-24c-1.977-0.988-2.773-3.391-1.789-5.367     c0.992-1.98,3.391-2.762,5.367-1.789l48,24c1.977,0.988,2.773,3.391,1.789,5.367C406.876,247.191,405.462,248,404.001,248z"/></g><g><path d="M403.985,231.992c-0.602,0-1.211-0.137-1.789-0.422l-15.984-7.992c-1.977-0.988-2.773-3.391-1.789-5.367     c0.992-1.98,3.398-2.762,5.367-1.789l15.984,7.992c1.977,0.988,2.773,3.391,1.789,5.367     C406.86,231.184,405.446,231.992,403.985,231.992z"/></g><g><path d="M388.001,224h-32c-2.211,0-4-1.789-4-4s1.789-4,4-4h32c2.211,0,4,1.789,4,4S390.212,224,388.001,224z"/></g><g><path d="M428.001,244c-2.211,0-4-1.789-4-4v-60c0-2.211,1.789-4,4-4s4,1.789,4,4v60C432.001,242.211,430.212,244,428.001,244z"/></g><g><path d="M412.001,244c-2.211,0-4-1.789-4-4v-60c0-2.211,1.789-4,4-4s4,1.789,4,4v60C416.001,242.211,414.212,244,412.001,244z"/></g><g><path d="M364.001,216c-2.211,0-4-1.789-4-4v-51.578c0-2.211,1.789-4,4-4s4,1.789,4,4V212     C368.001,214.211,366.212,216,364.001,216z"/></g><g><path d="M380.001,216c-2.211,0-4-1.789-4-4v-43.578c0-2.211,1.789-4,4-4s4,1.789,4,4V212     C384.001,214.211,382.212,216,380.001,216z"/></g><g><path d="M436.001,264c-2.211,0-4-1.789-4-4v-16c0-2.211,1.789-4,4-4s4,1.789,4,4v16C440.001,262.211,438.212,264,436.001,264z"/></g><g><path d="M404.001,264c-2.211,0-4-1.789-4-4v-16c0-2.211,1.789-4,4-4s4,1.789,4,4v16C408.001,262.211,406.212,264,404.001,264z"/></g><g><path d="M436.001,264h-32c-2.211,0-4-1.789-4-4s1.789-4,4-4h32c2.211,0,4,1.789,4,4S438.212,264,436.001,264z"/></g><g><path d="M356.001,240c-2.211,0-4-1.789-4-4v-16c0-2.211,1.789-4,4-4s4,1.789,4,4v16C360.001,238.211,358.212,240,356.001,240z"/></g></g><g><g><path d="M108.001,160h-32c-2.211,0-4-1.789-4-4s1.789-4,4-4h32c2.211,0,4,1.789,4,4S110.212,160,108.001,160z"/></g><g><path d="M108.001,176c-2.211,0-4-1.789-4-4v-16c0-2.211,1.789-4,4-4s4,1.789,4,4v16C112.001,174.211,110.212,176,108.001,176z"/></g><g><path d="M108.001,176h-32c-2.211,0-4-1.789-4-4s1.789-4,4-4h32c2.211,0,4,1.789,4,4S110.212,176,108.001,176z"/></g><g><path d="M76.001,176c-2.211,0-4-1.789-4-4v-16c0-2.211,1.789-4,4-4s4,1.789,4,4v16C80.001,174.211,78.212,176,76.001,176z"/></g><g><path d="M108.005,160c-1.469,0-2.879-0.809-3.582-2.211c-0.988-1.977-0.188-4.379,1.789-5.367l48-24     c1.969-0.977,4.379-0.188,5.367,1.789s0.188,4.379-1.789,5.367l-48,24C109.216,159.863,108.606,160,108.005,160z"/></g><g><path d="M76.005,160c-1.469,0-2.879-0.809-3.582-2.211c-0.988-1.977-0.188-4.379,1.789-5.367l48-24     c1.977-0.977,4.379-0.188,5.367,1.789s0.188,4.379-1.789,5.367l-48,24C77.216,159.863,76.606,160,76.005,160z"/></g><g><path d="M108.005,176c-1.48,0-2.902-0.824-3.598-2.242c-0.969-1.984-0.148-4.379,1.836-5.352l48-23.5     c1.984-0.977,4.383-0.148,5.352,1.836s0.148,4.379-1.836,5.352l-48,23.5C109.192,175.871,108.595,176,108.005,176z"/></g><g><path d="M156.001,136h-32c-2.211,0-4-1.789-4-4s1.789-4,4-4h32c2.211,0,4,1.789,4,4S158.212,136,156.001,136z"/></g><g><path d="M156.001,152.5c-2.211,0-4-1.789-4-4V132c0-2.211,1.789-4,4-4s4,1.789,4,4v16.5     C160.001,150.711,158.212,152.5,156.001,152.5z"/></g><g><path d="M108.001,248h-32c-2.211,0-4-1.789-4-4s1.789-4,4-4h32c2.211,0,4,1.789,4,4S110.212,248,108.001,248z"/></g><g><path d="M108.005,248c-1.469,0-2.879-0.809-3.582-2.211c-0.988-1.977-0.188-4.379,1.789-5.367l48-24     c1.969-0.977,4.379-0.188,5.367,1.789s0.188,4.379-1.789,5.367l-48,24C109.216,247.863,108.606,248,108.005,248z"/></g><g><path d="M108.021,231.992c-1.469,0-2.879-0.809-3.582-2.211c-0.988-1.977-0.188-4.379,1.789-5.367l15.984-7.992     c1.977-0.977,4.379-0.188,5.367,1.789s0.188,4.379-1.789,5.367l-15.984,7.992C109.231,231.855,108.622,231.992,108.021,231.992z"/></g><g><path d="M156.001,224h-32c-2.211,0-4-1.789-4-4s1.789-4,4-4h32c2.211,0,4,1.789,4,4S158.212,224,156.001,224z"/></g><g><path d="M84.001,244c-2.211,0-4-1.789-4-4v-60c0-2.211,1.789-4,4-4s4,1.789,4,4v60C88.001,242.211,86.212,244,84.001,244z"/></g><g><path d="M100.001,244c-2.211,0-4-1.789-4-4v-60c0-2.211,1.789-4,4-4s4,1.789,4,4v60C104.001,242.211,102.212,244,100.001,244z"/></g><g><path d="M148.001,216c-2.211,0-4-1.789-4-4v-51.578c0-2.211,1.789-4,4-4s4,1.789,4,4V212     C152.001,214.211,150.212,216,148.001,216z"/></g><g><path d="M132.001,216c-2.211,0-4-1.789-4-4v-43.578c0-2.211,1.789-4,4-4s4,1.789,4,4V212     C136.001,214.211,134.212,216,132.001,216z"/></g><g><path d="M76.001,264c-2.211,0-4-1.789-4-4v-16c0-2.211,1.789-4,4-4s4,1.789,4,4v16C80.001,262.211,78.212,264,76.001,264z"/></g><g><path d="M108.001,264c-2.211,0-4-1.789-4-4v-16c0-2.211,1.789-4,4-4s4,1.789,4,4v16C112.001,262.211,110.212,264,108.001,264z"/></g><g><path d="M108.001,264h-32c-2.211,0-4-1.789-4-4s1.789-4,4-4h32c2.211,0,4,1.789,4,4S110.212,264,108.001,264z"/></g><g><path d="M156.001,240c-2.211,0-4-1.789-4-4v-16c0-2.211,1.789-4,4-4s4,1.789,4,4v16C160.001,238.211,158.212,240,156.001,240z"/></g></g><g><path d="M265.892,80c-0.664,0-1.328-0.164-1.938-0.5l-7.953-4.398l-7.949,4.398c-1.348,0.742-2.984,0.648-4.242-0.23    c-1.25-0.883-1.891-2.402-1.645-3.914l1.566-9.586l-6.59-6.758c-1.047-1.074-1.406-2.641-0.93-4.062s1.707-2.457,3.188-2.684    l8.945-1.367l4.035-8.598c0.66-1.402,2.07-2.301,3.621-2.301l0,0c1.547,0,2.961,0.895,3.617,2.297l4.047,8.602l8.938,1.367    c1.484,0.227,2.719,1.262,3.188,2.684c0.477,1.422,0.125,2.988-0.922,4.062l-6.594,6.758l1.562,9.586    c0.25,1.512-0.391,3.031-1.641,3.914C267.509,79.754,266.704,80,265.892,80z M256.001,66.531c0.664,0,1.336,0.168,1.938,0.5    l2.68,1.48l-0.562-3.445c-0.203-1.254,0.195-2.527,1.078-3.438l2.57-2.633l-3.352-0.512c-1.32-0.199-2.453-1.043-3.016-2.25    l-1.328-2.828l-1.328,2.824c-0.566,1.207-1.699,2.055-3.016,2.254L248.302,59l2.566,2.629c0.887,0.91,1.289,2.184,1.086,3.438    l-0.562,3.445l2.672-1.48C254.669,66.699,255.333,66.531,256.001,66.531z"/></g><g><path d="M332.001,64h-32c-2.211,0-4-1.789-4-4s1.789-4,4-4h32c2.211,0,4,1.789,4,4S334.212,64,332.001,64z"/></g><g><path d="M212.001,64h-32c-2.211,0-4-1.789-4-4s1.789-4,4-4h32c2.211,0,4,1.789,4,4S214.212,64,212.001,64z"/></g></g></svg>